name C:/MyDriveSym/Projects/mobilecap/Data\Session20210910_0002\mocap\ForceDataProcessed\walking4_forces.mot
datacolumns 19
datarows 12
range 1.03450000 1.04000000
endheader 
time	R_ground_force_vx	R_ground_force_vy	R_ground_force_vz	R_ground_force_px	R_ground_force_py	R_ground_force_pz	R_ground_torque_x	R_ground_torque_y	R_ground_torque_z	L_ground_force_vx	L_ground_force_vy	L_ground_force_vz	L_ground_force_px	L_ground_force_py	L_ground_force_pz	L_ground_torque_x	L_ground_torque_y	L_ground_torque_z	
          1.03450000	          0.00000000	          0.00000000	          0.00000000	          1.34192000	          0.00000000	         -0.19787100	          0.00000000	          0.00000000	          0.00000000	         68.31422500	        873.15389900	         53.85476200	          0.99400800	          0.00600000	         -0.34667400	          0.00000000	          4.61378000	          0.00000000	
          1.03500000	          0.00000000	          0.00000000	          0.00000000	          1.34344600	          0.00000000	         -0.19788500	          0.00000000	          0.00000000	          0.00000000	         68.91890700	        874.41634200	         53.97077500	          0.99405300	          0.00600000	         -0.34665400	          0.00000000	          4.61031000	          0.00000000	
          1.03550000	          0.00000000	          0.00000000	          0.00000000	          1.34497200	          0.00000000	         -0.19790000	          0.00000000	          0.00000000	          0.00000000	         69.52463600	        875.67681100	         54.08631100	          0.99409700	          0.00600000	         -0.34663300	          0.00000000	          4.60670100	          0.00000000	
          1.03600000	          0.00000000	          0.00000000	          0.00000000	          1.34649800	          0.00000000	         -0.19791400	          0.00000000	          0.00000000	          0.00000000	         70.13139100	        876.93518400	         54.20135700	          0.99414100	          0.00600000	         -0.34661300	          0.00000000	          4.60295300	          0.00000000	
          1.03650000	          0.00000000	          0.00000000	          0.00000000	          1.34802400	          0.00000000	         -0.19792800	          0.00000000	          0.00000000	          0.00000000	         70.73914700	        878.19133400	         54.31589900	          0.99418500	          0.00600000	         -0.34659200	          0.00000000	          4.59906400	          0.00000000	
          1.03700000	          0.00000000	          0.00000000	          0.00000000	          1.34954900	          0.00000000	         -0.19794200	          0.00000000	          0.00000000	          0.00000000	         71.34788300	        879.44513500	         54.42992200	          0.99422900	          0.00600000	         -0.34657200	          0.00000000	          4.59503500	          0.00000000	
          1.03750000	          0.00000000	          0.00000000	          0.00000000	          1.35107500	          0.00000000	         -0.19795600	          0.00000000	          0.00000000	          0.00000000	         71.95757600	        880.69646000	         54.54341400	          0.99427300	          0.00600000	         -0.34655200	          0.00000000	          4.59086400	          0.00000000	
          1.03800000	          0.00000000	          0.00000000	          0.00000000	          1.35260100	          0.00000000	         -0.19797100	          0.00000000	          0.00000000	          0.00000000	         72.56820100	        881.94518200	         54.65635900	          0.99431600	          0.00600000	         -0.34653100	          0.00000000	          4.58655200	          0.00000000	
          1.03850000	          0.00000000	          0.00000000	          0.00000000	          1.35412700	          0.00000000	         -0.19798500	          0.00000000	          0.00000000	          0.00000000	         73.17973500	        883.19117200	         54.76874400	          0.99436000	          0.00600000	         -0.34651100	          0.00000000	          4.58209700	          0.00000000	
          1.03900000	          0.00000000	          0.00000000	          0.00000000	          1.35565300	          0.00000000	         -0.19799900	          0.00000000	          0.00000000	          0.00000000	         73.79215500	        884.43430100	         54.88055500	          0.99440300	          0.00600000	         -0.34649000	          0.00000000	          4.57749900	          0.00000000	
          1.03950000	          0.00000000	          0.00000000	          0.00000000	          1.35717800	          0.00000000	         -0.19801300	          0.00000000	          0.00000000	          0.00000000	         74.40543500	        885.67443900	         54.99177700	          0.99444700	          0.00600000	         -0.34647000	          0.00000000	          4.57275900	          0.00000000	
          1.04000000	          0.00000000	          0.00000000	          0.00000000	          1.35870400	          0.00000000	         -0.19802700	          0.00000000	          0.00000000	          0.00000000	         75.01955300	        886.91145500	         55.10239600	          0.99449000	          0.00600000	         -0.34644900	          0.00000000	          4.56787400	          0.00000000	
